<mxfile host="app.diagrams.net" modified="2023-04-24T14:51:05.426Z" agent="Mozilla/5.0 (Windows NT 10.0; Win64; x64) AppleWebKit/537.36 (KHTML, like Gecko) Chrome/112.0.0.0 Safari/537.36" etag="LeI_j3tOm8s4AVjVHvJ7" version="21.2.1" type="device">
  <diagram name="Page-1" id="Ajt28y1DbtHQzKvVMuVV">
    <mxGraphModel dx="2100" dy="982" grid="1" gridSize="10" guides="1" tooltips="1" connect="1" arrows="1" fold="1" page="1" pageScale="1" pageWidth="827" pageHeight="1169" math="0" shadow="0">
      <root>
        <mxCell id="0" />
        <mxCell id="1" parent="0" />
        <mxCell id="XWLF9G_vrwk7sYsb0ylp-10" style="edgeStyle=orthogonalEdgeStyle;curved=1;rounded=1;orthogonalLoop=1;jettySize=auto;html=1;exitX=1;exitY=0.5;exitDx=0;exitDy=0;entryX=0;entryY=0.5;entryDx=0;entryDy=0;endArrow=none;endFill=0;fillColor=#d5e8d4;strokeColor=#82b366;strokeWidth=10;" edge="1" parent="1" source="XWLF9G_vrwk7sYsb0ylp-43" target="XWLF9G_vrwk7sYsb0ylp-7">
          <mxGeometry relative="1" as="geometry">
            <mxPoint x="300" y="560" as="sourcePoint" />
          </mxGeometry>
        </mxCell>
        <mxCell id="XWLF9G_vrwk7sYsb0ylp-15" style="edgeStyle=none;rounded=1;orthogonalLoop=1;jettySize=auto;html=1;entryX=0;entryY=0.5;entryDx=0;entryDy=0;endArrow=none;endFill=0;fillColor=#dae8fc;strokeColor=#6c8ebf;strokeWidth=10;exitX=1;exitY=0.5;exitDx=0;exitDy=0;" edge="1" parent="1" source="XWLF9G_vrwk7sYsb0ylp-43" target="XWLF9G_vrwk7sYsb0ylp-9">
          <mxGeometry relative="1" as="geometry">
            <mxPoint x="320" y="540" as="sourcePoint" />
          </mxGeometry>
        </mxCell>
        <mxCell id="XWLF9G_vrwk7sYsb0ylp-7" value="" style="ellipse;whiteSpace=wrap;html=1;aspect=fixed;rounded=1;fillColor=#d5e8d4;strokeColor=#82b366;strokeWidth=10;" vertex="1" parent="1">
          <mxGeometry x="380" y="601" width="40" height="40" as="geometry" />
        </mxCell>
        <mxCell id="XWLF9G_vrwk7sYsb0ylp-9" value="" style="ellipse;whiteSpace=wrap;html=1;aspect=fixed;rounded=1;fillColor=#dae8fc;strokeColor=#6c8ebf;strokeWidth=10;" vertex="1" parent="1">
          <mxGeometry x="1220" y="540" width="40" height="40" as="geometry" />
        </mxCell>
        <mxCell id="XWLF9G_vrwk7sYsb0ylp-17" style="edgeStyle=none;rounded=1;orthogonalLoop=1;jettySize=auto;html=1;exitX=0;exitY=0.5;exitDx=0;exitDy=0;endArrow=none;endFill=0;entryX=1;entryY=0.5;entryDx=0;entryDy=0;fillColor=#d5e8d4;strokeColor=#82b366;strokeWidth=10;" edge="1" parent="1" source="XWLF9G_vrwk7sYsb0ylp-39" target="XWLF9G_vrwk7sYsb0ylp-7">
          <mxGeometry relative="1" as="geometry">
            <mxPoint x="500" y="620" as="sourcePoint" />
            <mxPoint x="460" y="620" as="targetPoint" />
          </mxGeometry>
        </mxCell>
        <mxCell id="XWLF9G_vrwk7sYsb0ylp-18" style="edgeStyle=none;rounded=1;orthogonalLoop=1;jettySize=auto;html=1;endArrow=none;endFill=0;strokeWidth=10;strokeColor=#6c8ebf;fillColor=#dae8fc;entryX=1;entryY=0.5;entryDx=0;entryDy=0;exitX=0;exitY=0.5;exitDx=0;exitDy=0;" edge="1" parent="1" source="XWLF9G_vrwk7sYsb0ylp-43" target="XWLF9G_vrwk7sYsb0ylp-42">
          <mxGeometry relative="1" as="geometry">
            <mxPoint x="260" y="560" as="sourcePoint" />
            <mxPoint x="190" y="570" as="targetPoint" />
          </mxGeometry>
        </mxCell>
        <mxCell id="XWLF9G_vrwk7sYsb0ylp-24" style="edgeStyle=orthogonalEdgeStyle;curved=1;rounded=1;orthogonalLoop=1;jettySize=auto;html=1;endArrow=none;endFill=0;entryX=0;entryY=0.5;entryDx=0;entryDy=0;fillColor=#fff2cc;strokeColor=#d6b656;strokeWidth=10;exitX=1;exitY=0.5;exitDx=0;exitDy=0;" edge="1" parent="1" source="XWLF9G_vrwk7sYsb0ylp-39" target="XWLF9G_vrwk7sYsb0ylp-34">
          <mxGeometry relative="1" as="geometry">
            <mxPoint x="540" y="560" as="sourcePoint" />
            <mxPoint x="620" y="700" as="targetPoint" />
          </mxGeometry>
        </mxCell>
        <mxCell id="XWLF9G_vrwk7sYsb0ylp-25" style="edgeStyle=none;rounded=1;orthogonalLoop=1;jettySize=auto;html=1;exitX=0;exitY=1;exitDx=0;exitDy=0;fillColor=#f5f5f5;strokeColor=#00FF80;strokeWidth=10;" edge="1" parent="1">
          <mxGeometry relative="1" as="geometry">
            <mxPoint x="625.8578643762692" y="634.1421356237308" as="sourcePoint" />
            <mxPoint x="625.8578643762692" y="634.1421356237308" as="targetPoint" />
          </mxGeometry>
        </mxCell>
        <mxCell id="XWLF9G_vrwk7sYsb0ylp-30" value="" style="ellipse;whiteSpace=wrap;html=1;aspect=fixed;rounded=1;fillColor=#dae8fc;strokeColor=#6c8ebf;strokeWidth=10;" vertex="1" parent="1">
          <mxGeometry x="1340" y="540" width="40" height="40" as="geometry" />
        </mxCell>
        <mxCell id="XWLF9G_vrwk7sYsb0ylp-31" style="edgeStyle=none;rounded=1;orthogonalLoop=1;jettySize=auto;html=1;endArrow=none;endFill=0;fillColor=#dae8fc;strokeColor=#6c8ebf;strokeWidth=10;entryX=0;entryY=0.5;entryDx=0;entryDy=0;exitX=1;exitY=0.5;exitDx=0;exitDy=0;" edge="1" parent="1" source="XWLF9G_vrwk7sYsb0ylp-9" target="XWLF9G_vrwk7sYsb0ylp-30">
          <mxGeometry relative="1" as="geometry">
            <mxPoint x="540" y="560" as="sourcePoint" />
            <mxPoint x="1110" y="550" as="targetPoint" />
          </mxGeometry>
        </mxCell>
        <mxCell id="XWLF9G_vrwk7sYsb0ylp-51" value="" style="edgeStyle=orthogonalEdgeStyle;rounded=0;orthogonalLoop=1;jettySize=auto;html=1;strokeColor=#736CA8;fontColor=#1A1A1A;" edge="1" parent="1" source="XWLF9G_vrwk7sYsb0ylp-32" target="XWLF9G_vrwk7sYsb0ylp-40">
          <mxGeometry relative="1" as="geometry" />
        </mxCell>
        <mxCell id="XWLF9G_vrwk7sYsb0ylp-32" value="" style="ellipse;whiteSpace=wrap;html=1;aspect=fixed;rounded=1;fillColor=#d5e8d4;strokeColor=#82b366;strokeWidth=10;" vertex="1" parent="1">
          <mxGeometry x="980" y="601" width="40" height="40" as="geometry" />
        </mxCell>
        <mxCell id="XWLF9G_vrwk7sYsb0ylp-33" style="edgeStyle=none;rounded=1;orthogonalLoop=1;jettySize=auto;html=1;endArrow=none;endFill=0;fillColor=#d5e8d4;strokeColor=#82b366;strokeWidth=10;entryX=1;entryY=0.5;entryDx=0;entryDy=0;exitX=0;exitY=0.5;exitDx=0;exitDy=0;" edge="1" parent="1" source="XWLF9G_vrwk7sYsb0ylp-32" target="XWLF9G_vrwk7sYsb0ylp-40">
          <mxGeometry relative="1" as="geometry">
            <mxPoint x="980" y="620" as="sourcePoint" />
            <mxPoint x="890" y="620" as="targetPoint" />
          </mxGeometry>
        </mxCell>
        <mxCell id="XWLF9G_vrwk7sYsb0ylp-34" value="" style="ellipse;whiteSpace=wrap;html=1;aspect=fixed;rounded=1;fillColor=#fff2cc;strokeColor=#d6b656;strokeWidth=10;" vertex="1" parent="1">
          <mxGeometry x="620" y="680" width="40" height="40" as="geometry" />
        </mxCell>
        <mxCell id="XWLF9G_vrwk7sYsb0ylp-35" value="" style="ellipse;whiteSpace=wrap;html=1;aspect=fixed;rounded=1;fillColor=#fff2cc;strokeColor=#d6b656;strokeWidth=10;" vertex="1" parent="1">
          <mxGeometry x="740" y="680" width="40" height="40" as="geometry" />
        </mxCell>
        <mxCell id="XWLF9G_vrwk7sYsb0ylp-36" style="edgeStyle=none;rounded=1;orthogonalLoop=1;jettySize=auto;html=1;endArrow=none;endFill=0;entryX=1;entryY=0.5;entryDx=0;entryDy=0;fillColor=#fff2cc;strokeColor=#d6b656;strokeWidth=10;" edge="1" source="XWLF9G_vrwk7sYsb0ylp-35" target="XWLF9G_vrwk7sYsb0ylp-34" parent="1">
          <mxGeometry relative="1" as="geometry">
            <mxPoint x="830" y="630" as="sourcePoint" />
            <mxPoint x="550" y="630" as="targetPoint" />
          </mxGeometry>
        </mxCell>
        <mxCell id="XWLF9G_vrwk7sYsb0ylp-37" style="edgeStyle=orthogonalEdgeStyle;curved=1;rounded=1;orthogonalLoop=1;jettySize=auto;html=1;endArrow=none;endFill=0;entryX=1;entryY=0.5;entryDx=0;entryDy=0;exitX=0;exitY=0.5;exitDx=0;exitDy=0;fillColor=#fff2cc;strokeColor=#d6b656;strokeWidth=10;" edge="1" target="XWLF9G_vrwk7sYsb0ylp-35" parent="1" source="XWLF9G_vrwk7sYsb0ylp-40">
          <mxGeometry relative="1" as="geometry">
            <mxPoint x="860" y="620" as="sourcePoint" />
            <mxPoint x="630" y="710" as="targetPoint" />
            <Array as="points">
              <mxPoint x="820" y="620" />
              <mxPoint x="820" y="700" />
            </Array>
          </mxGeometry>
        </mxCell>
        <mxCell id="XWLF9G_vrwk7sYsb0ylp-38" style="edgeStyle=none;rounded=1;orthogonalLoop=1;jettySize=auto;html=1;endArrow=none;endFill=0;fillColor=#d5e8d4;strokeColor=#82b366;strokeWidth=10;entryX=1;entryY=0.5;entryDx=0;entryDy=0;exitX=0;exitY=0.5;exitDx=0;exitDy=0;" edge="1" parent="1" source="XWLF9G_vrwk7sYsb0ylp-40" target="XWLF9G_vrwk7sYsb0ylp-39">
          <mxGeometry relative="1" as="geometry">
            <mxPoint x="860" y="620" as="sourcePoint" />
            <mxPoint x="540" y="620" as="targetPoint" />
          </mxGeometry>
        </mxCell>
        <mxCell id="XWLF9G_vrwk7sYsb0ylp-39" value="" style="ellipse;whiteSpace=wrap;html=1;aspect=fixed;rounded=1;fillColor=#d5e8d4;strokeColor=#82b366;strokeWidth=10;" vertex="1" parent="1">
          <mxGeometry x="500" y="601" width="40" height="40" as="geometry" />
        </mxCell>
        <mxCell id="XWLF9G_vrwk7sYsb0ylp-40" value="" style="ellipse;whiteSpace=wrap;html=1;aspect=fixed;rounded=1;fillColor=#d5e8d4;strokeColor=#82b366;strokeWidth=10;" vertex="1" parent="1">
          <mxGeometry x="860" y="601" width="40" height="40" as="geometry" />
        </mxCell>
        <mxCell id="XWLF9G_vrwk7sYsb0ylp-42" value="" style="ellipse;whiteSpace=wrap;html=1;aspect=fixed;strokeWidth=10;strokeColor=#6c8ebf;rounded=1;fillColor=#dae8fc;" vertex="1" parent="1">
          <mxGeometry x="140" y="540" width="40" height="40" as="geometry" />
        </mxCell>
        <mxCell id="XWLF9G_vrwk7sYsb0ylp-43" value="" style="ellipse;whiteSpace=wrap;html=1;aspect=fixed;strokeWidth=10;strokeColor=#6c8ebf;rounded=1;fillColor=#dae8fc;" vertex="1" parent="1">
          <mxGeometry x="260" y="540" width="40" height="40" as="geometry" />
        </mxCell>
        <mxCell id="XWLF9G_vrwk7sYsb0ylp-46" value="" style="ellipse;whiteSpace=wrap;html=1;aspect=fixed;rounded=1;fillColor=#d5e8d4;strokeColor=#82b366;strokeWidth=10;" vertex="1" parent="1">
          <mxGeometry x="1100" y="601" width="40" height="40" as="geometry" />
        </mxCell>
        <mxCell id="XWLF9G_vrwk7sYsb0ylp-47" style="edgeStyle=none;rounded=1;orthogonalLoop=1;jettySize=auto;html=1;endArrow=none;endFill=0;fillColor=#d5e8d4;strokeColor=#82b366;strokeWidth=10;entryX=1;entryY=0.5;entryDx=0;entryDy=0;exitX=0;exitY=0.5;exitDx=0;exitDy=0;" edge="1" parent="1" source="XWLF9G_vrwk7sYsb0ylp-46" target="XWLF9G_vrwk7sYsb0ylp-32">
          <mxGeometry relative="1" as="geometry">
            <mxPoint x="1070" y="690" as="sourcePoint" />
            <mxPoint x="980" y="690" as="targetPoint" />
          </mxGeometry>
        </mxCell>
        <mxCell id="XWLF9G_vrwk7sYsb0ylp-49" value="" style="ellipse;whiteSpace=wrap;html=1;aspect=fixed;rounded=1;fillColor=#dae8fc;strokeColor=#6c8ebf;strokeWidth=10;gradientColor=none;" vertex="1" parent="1">
          <mxGeometry x="1460" y="540" width="40" height="40" as="geometry" />
        </mxCell>
        <mxCell id="XWLF9G_vrwk7sYsb0ylp-50" style="edgeStyle=none;rounded=1;orthogonalLoop=1;jettySize=auto;html=1;endArrow=none;endFill=0;fillColor=#dae8fc;strokeColor=#6c8ebf;strokeWidth=10;entryX=0;entryY=0.5;entryDx=0;entryDy=0;exitX=1;exitY=0.5;exitDx=0;exitDy=0;" edge="1" parent="1" source="XWLF9G_vrwk7sYsb0ylp-30" target="XWLF9G_vrwk7sYsb0ylp-49">
          <mxGeometry relative="1" as="geometry">
            <mxPoint x="1400" y="620.47" as="sourcePoint" />
            <mxPoint x="1480" y="620.47" as="targetPoint" />
          </mxGeometry>
        </mxCell>
      </root>
    </mxGraphModel>
  </diagram>
</mxfile>
